<?xml version="1.0" encoding="utf-8"?>
<!-- Generator: Adobe Illustrator 25.4.1, SVG Export Plug-In . SVG Version: 6.00 Build 0)  -->
<svg version="1.1" id="圖層_1" xmlns="http://www.w3.org/2000/svg" xmlns:xlink="http://www.w3.org/1999/xlink" x="0px" y="0px"
	 viewBox="0 0 409.2 50" style="enable-background:new 0 0 409.2 50;" xml:space="preserve">
<style type="text/css">
	.st0{fill:url(#SVGID_1_);}
	.st1{fill:#004097;}
	.st2{fill:#00913A;}
	.st3{fill:#EC6C00;}
	.st4{fill:#0180B8;}
</style>
<g>
	
		<radialGradient id="SVGID_1_" cx="349.4787" cy="-1269.4218" r="33.3571" gradientTransform="matrix(0.7499 0 0 0.7499 -237.0579 976.9521)" gradientUnits="userSpaceOnUse">
		<stop  offset="0" style="stop-color:#FFFFFF"/>
		<stop  offset="0.3365" style="stop-color:#FDFEFE"/>
		<stop  offset="0.4961" style="stop-color:#F5F9FC"/>
		<stop  offset="0.6184" style="stop-color:#E8F1F9"/>
		<stop  offset="0.7218" style="stop-color:#D6E5F4"/>
		<stop  offset="0.8131" style="stop-color:#BED6EE"/>
		<stop  offset="0.896" style="stop-color:#A1C4E6"/>
		<stop  offset="0.9709" style="stop-color:#7EAFDD"/>
		<stop  offset="1" style="stop-color:#6FA5D9"/>
	</radialGradient>
	<path class="st0" d="M50,25c0,13.8-11.2,25-25,25C11.2,50,0,38.8,0,25C0,11.2,11.2,0,25,0C38.8,0,50,11.2,50,25z"/>
	<g>
		<g>
			<path class="st1" d="M19.5,32.3c-1.1,0-2-0.1-2.7-0.3c-0.7-0.2-1.4-0.5-2-0.8l1.2-3.3h0.3c0.5,0.6,1.1,1.1,1.8,1.4
				c0.7,0.3,1.5,0.5,2.3,0.5c0.2,0,0.5,0,0.8-0.1c0.3,0,0.6-0.1,0.9-0.2c0.3-0.1,0.5-0.3,0.8-0.4c0.2-0.2,0.4-0.4,0.5-0.8
				c0.1-0.4,0.1-0.6-0.1-0.9c-0.2-0.2-0.5-0.4-0.8-0.5c-0.4-0.1-0.9-0.2-1.4-0.4c-0.5-0.1-1-0.3-1.4-0.4c-1-0.4-1.5-0.9-1.8-1.6
				c-0.2-0.6-0.2-1.5,0.2-2.4c0.5-1.3,1.4-2.4,2.8-3.2c1.4-0.8,2.9-1.2,4.6-1.2c0.8,0,1.6,0.1,2.4,0.3c0.8,0.2,1.4,0.4,2,0.7
				l-1.2,3.2h-0.3c-0.4-0.4-0.9-0.8-1.5-1.1c-0.6-0.3-1.4-0.5-2.2-0.5c-0.3,0-0.6,0-0.9,0.1c-0.3,0-0.6,0.1-0.9,0.3
				c-0.3,0.1-0.5,0.3-0.7,0.5c-0.2,0.2-0.4,0.4-0.5,0.7c-0.1,0.4-0.1,0.6,0.1,0.9c0.2,0.2,0.6,0.4,1.3,0.6c0.4,0.1,0.9,0.2,1.3,0.3
				c0.4,0.1,0.8,0.2,1.3,0.4c0.9,0.4,1.4,0.8,1.7,1.4c0.3,0.6,0.2,1.4-0.1,2.4c-0.5,1.4-1.5,2.5-2.9,3.4
				C23,31.9,21.4,32.3,19.5,32.3z"/>
			<g>
				<g>
					<path class="st1" d="M34.8,32.4L39.7,18h3.9l4.9,14.4h-3.7l-0.9-2.9h-4.5l-0.9,2.9H34.8z M43.1,26.8l-1.5-4.7l-1.5,4.7H43.1z"
						/>
				</g>
				<path class="st1" d="M37,26h-4.9l-2.3,6.4h-3.6L31.4,18H35l-1.9,5.3H38L37,26z"/>
			</g>
		</g>
		<path class="st2" d="M6.4,29.2c-1.3-0.1-1.9-1.4-1.4-2.8c0.6-1.4,2.1-2.4,3.5-2.2c1.3,0.1,1.9,1.4,1.4,2.8
			C9.3,28.4,7.8,29.4,6.4,29.2z"/>
		<path class="st1" d="M5.3,19.1c2.8-1.9,6-2.4,8.4-1.5c0,0,0,0,0,0c0,0,0,0,0,0c0,0,0,0,0,0c0,0,0,0,0,0c-3.4,0.2-7,2.6-8.6,6
			c-0.5,1-0.7,2.1-0.8,3c0,0,0,0,0,0.1c0,0,0,0,0,0c0,0,0,0,0,0c0,0,0,0,0,0C2.7,23.9,4.7,20.3,5.3,19.1z"/>
		<path class="st2" d="M14.1,26.9l0.3-0.1c0-0.1,0.1-0.2,0.1-0.2C14.3,26.7,14.2,26.8,14.1,26.9z M4.6,27.8
			c-0.9-0.8-1.4-1.9-1.4-3.1c0-0.2,0-0.3,0-0.5c0,0,0,0,0,0c0-0.1,0-0.2,0-0.3c0,0,0,0,0,0c0-0.1,0-0.2,0-0.3c0,0,0,0,0,0
			c0-0.1,0-0.2,0-0.2c0,0,0,0,0,0c0-0.1,0-0.2,0-0.2c0,0,0,0,0,0c0-0.1,0-0.2,0-0.2c0,0,0,0,0,0c0-0.1,0-0.2,0.1-0.2c0,0,0,0,0-0.1
			c0-0.1,0-0.1,0.1-0.2c0,0,0,0,0-0.1c0-0.1,0-0.1,0.1-0.2c0,0,0-0.1,0-0.1c0-0.1,0-0.1,0.1-0.2c0,0,0-0.1,0-0.1
			c0-0.1,0-0.1,0.1-0.2c0,0,0-0.1,0-0.1c0-0.1,0-0.1,0.1-0.2c0,0,0-0.1,0.1-0.1C4,21,4,20.9,4,20.9c0,0,0-0.1,0.1-0.1
			c0-0.1,0-0.1,0.1-0.2c0,0,0-0.1,0.1-0.1c0,0,0-0.1,0.1-0.1c0-0.1,0.1-0.1,0.1-0.2c0,0,0-0.1,0.1-0.1c0.1-0.1,0.1-0.2,0.2-0.3
			c-0.4,0.3-0.7,0.6-1.1,0.9C0,24.2-0.7,29,2,31.4c0.1,0.1,0.2,0.2,0.3,0.3l0,0l0,0c0,0,0.6,0.5,1.9,0.9c1.2,0.3,2.6,0.3,4-0.1
			c0.7-0.2,1.4-0.4,2-0.7c0.3-0.2,0.7-0.4,1-0.7c1.8-2.1,2.3-3.4,2.4-4C10.5,29.3,6.7,29.7,4.6,27.8z"/>
		<path class="st3" d="M13.7,18c-1.5,0-2.9,0.6-3.9,1.1c-0.4,0.2-0.9,0.4-1.3,0.7c-0.1,0-0.1,0.1-0.1,0.1c0.6-0.1,1.2,0,1.8,0.1
			c3.7,0.6,5.2,4.3,3.4,8.2c-0.5,1.1-1.2,2-2,2.9c0.2-0.1,0.4-0.2,0.5-0.3c0,0,0,0-0.1,0.1c1.8-1.1,3.3-3,4.2-5.1
			c0.2-0.4,0.3-0.8,0.4-1.1C17.5,21,16.4,17.9,13.7,18z"/>
	</g>
</g>
<g>
	<g>
		<path d="M72,13.5c0,1.1-0.2,2-0.4,2.8c1,0.6,2.4,1.5,3.2,2.1L74,19.2h0.6v3h-1.5v-1.7H62.6v1.7h-1.4v-3h0.1
			c-0.1-0.3-0.4-0.7-0.7-1c2.8-0.7,3.2-2,3.3-4.7h1.3c0,1.2-0.1,2.1-0.4,2.9c0.8,0.5,1.8,1.1,2.3,1.6l-1,0.9
			c-0.4-0.4-1.2-0.9-1.9-1.4c-0.5,0.8-1.3,1.3-2.6,1.7h11.8c-0.7-0.5-1.7-1.2-2.6-1.8c-0.5,0.8-1.4,1.4-2.8,1.8
			c-0.1-0.3-0.5-0.8-0.8-1.1c2.7-0.7,3-2,3.2-4.6H72z M73.4,22.2c0,0,0,0.4,0,0.6c-0.2,3-0.4,4.3-0.9,4.8c-0.3,0.4-0.7,0.5-1.3,0.5
			c-0.5,0-1.4,0-2.4,0c0-0.4-0.2-1-0.5-1.4c0.9,0.1,1.9,0.1,2.3,0.1c0.3,0,0.5,0,0.7-0.2c0.3-0.3,0.5-1.1,0.6-3.1h-4
			c-0.6,2.5-2.1,3.9-6.3,4.7c-0.1-0.4-0.5-1-0.8-1.3c3.5-0.6,4.8-1.6,5.4-3.3h-4v-1.3h4.3c0.1-0.5,0.1-1,0.1-1.6h1.6
			c0,0.6-0.1,1.1-0.1,1.6H73.4z M62.3,16.4C62,16,61.4,15.3,61,14.9l0.9-0.7c0.5,0.5,1.1,1.1,1.4,1.5L62.3,16.4z M67.8,14.7
			c-0.5,0.6-1,1.3-1.4,1.7l-0.9-0.4c0.4-0.5,0.8-1.3,1.1-1.8L67.8,14.7z M69.1,16.3c-0.3-0.4-0.8-1-1.2-1.4l0.8-0.7
			c0.4,0.4,1,0.9,1.3,1.3L69.1,16.3z M74.8,14.8c-0.5,0.7-1.1,1.4-1.6,1.8l-0.9-0.4c0.4-0.5,0.9-1.3,1.2-1.9L74.8,14.8z"/>
		<path d="M90.9,17.1c0,0,0,0.5,0,0.7c-0.2,6.6-0.3,8.9-0.8,9.6c-0.3,0.5-0.6,0.6-1.1,0.7c-0.5,0.1-1.2,0.1-2,0c0-0.4-0.2-1-0.4-1.4
			c0.7,0.1,1.4,0.1,1.7,0.1c0.3,0,0.4,0,0.6-0.3c0.4-0.4,0.5-2.5,0.6-8h-1.9c-0.2,4.3-0.9,7.7-3.7,9.8c-0.2-0.3-0.7-0.9-1.1-1.1
			C82.9,27.1,83,27,83,27c-2.3,0.3-4.6,0.5-6.3,0.7l-0.2-1.3c0.9-0.1,2.1-0.2,3.3-0.3v-1.2H77v-1.1h2.9V23H77v-4.8h2.9v-0.8h-3.3
			v-1.1h3.3v-0.9c-1,0.1-2,0.1-2.8,0.2c0-0.3-0.2-0.8-0.4-1.1c2.4-0.1,5.2-0.4,6.9-0.8l0.7,1.1c-0.8,0.2-1.9,0.3-3,0.4v1h3.2v0.9
			h1.7c0-1.1,0-2.2,0-3.4h1.4c0,1.2,0,2.3,0,3.4H90.9z M78.2,20.1h1.6v-1h-1.6V20.1z M79.9,22v-1h-1.6v1H79.9z M81.2,26
			c1-0.1,2-0.2,3-0.3c1.3-1.8,1.7-4.2,1.8-7.1h-1.7v-1.2h-3.2v0.8h3V23h-3v0.8h3v1.1h-3V26z M83,20.1v-1h-1.7v1H83z M81.2,21v1H83
			v-1H81.2z"/>
		<path d="M100,17c-0.4,0.9-0.8,1.8-1.1,2.6h2.1v1.3h-8.4v-1.3H95c-0.1-0.7-0.5-1.8-0.9-2.6l1.3-0.3c0.4,0.8,0.8,1.9,1,2.6l-1.2,0.3
			h2.4c0.4-0.8,0.8-2.1,1.1-2.9L100,17z M100.7,16.6h-7.6v-1.3h3.2c-0.2-0.5-0.4-1.1-0.6-1.5l1.3-0.4c0.3,0.6,0.6,1.4,0.8,1.9h2.8
			V16.6z M93.5,22.2h6.8V28h-1.5v-0.6h-3.9v0.7h-1.4V22.2z M94.9,23.6v2.5h3.9v-2.5H94.9z M107.1,14.9c-0.6,1.5-1.3,3.3-1.9,4.8
			c1.4,1.5,1.7,2.7,1.7,3.8c0,1-0.2,1.8-0.8,2.2c-0.3,0.2-0.6,0.3-1,0.4c-0.4,0-0.9,0-1.3,0c0-0.4-0.1-1-0.4-1.4c0.4,0,0.8,0,1.1,0
			c0.2,0,0.5-0.1,0.6-0.2c0.3-0.2,0.4-0.6,0.4-1.2c0-0.9-0.4-2.1-1.7-3.4c0.5-1.3,1.1-2.9,1.5-4.2h-2.2v12.5h-1.3V14.3h4.1l0.2-0.1
			L107.1,14.9z"/>
		<path d="M113,15.5v12.7h-1.2v-3c-1.1,0.2-2.2,0.5-3.2,0.7l-0.3-1.3c0.3,0,0.6-0.1,0.9-0.1v-9h-0.8v-1.3h5.1v1.3H113z M111.9,15.5
			h-1.4v2h1.4V15.5z M111.9,18.7h-1.4v2h1.4V18.7z M110.5,24.2c0.4-0.1,0.9-0.2,1.4-0.3v-2h-1.4V24.2z M123,20.8
			c-0.5,1.5-1.2,2.8-2,4c0.2,1.1,0.5,1.7,0.8,1.7c0.2,0,0.4-0.8,0.5-2.1c0.2,0.3,0.7,0.7,0.9,0.8c-0.3,2.4-0.9,3-1.5,3
			c-0.8,0-1.3-0.8-1.7-2.2c-0.7,0.8-1.6,1.5-2.4,2.1c-0.2-0.3-0.6-0.6-0.9-0.8c0.4-0.3,0.8-0.6,1.2-0.9h-0.9v-0.4h-1.9V27h-1.2v-6.8
			h4.2v5.8c0.5-0.4,1-1,1.4-1.5c-0.3-1.4-0.4-3.1-0.5-5h-5.6v-1.3h0.9c-0.1-0.5-0.2-1.2-0.4-1.7l1-0.2c0.2,0.6,0.4,1.3,0.4,1.9h1
			c0.2-0.6,0.3-1.3,0.4-1.9l1.2,0.2c-0.2,0.6-0.3,1.2-0.5,1.7h1.4c-0.1-1.5-0.1-3.1-0.1-4.8h1.3c0,1.7,0,3.3,0.1,4.8h2.8v1.3h-2.8
			c0.1,1.3,0.2,2.5,0.3,3.5c0.5-0.9,0.9-1.8,1.2-2.8L123,20.8z M118.6,16.3h-4.8v-1.2h1.8c-0.1-0.4-0.3-0.9-0.5-1.3l1.2-0.2
			c0.2,0.5,0.4,1.1,0.6,1.6h1.6V16.3z M115.2,21.3v1.2h1.9v-1.2H115.2z M117.2,24.9v-1.3h-1.9v1.3H117.2z M121.6,17.7
			c-0.2-0.8-0.7-2-1.1-2.8l1.1-0.4c0.5,0.9,1,2,1.2,2.8L121.6,17.7z"/>
		<path d="M130.5,25.7c-1.1,0.9-3.1,1.7-4.8,2.1c-0.2-0.3-0.6-0.8-0.9-1.1c1.6-0.2,3.6-0.8,4.6-1.5L130.5,25.7z M138.9,23.2v1.2
			h-6.3v3.7h-1.5v-3.7h-6.2v-1.2h6.2v-1h-4.7v-1.1h4.7v-1h-5.5V19h3.2c-0.2-0.4-0.4-1-0.7-1.4l0.9-0.2H125v-1.2h2.4
			c-0.2-0.6-0.7-1.5-1.2-2.2l1.3-0.4c0.5,0.7,1.1,1.7,1.3,2.3l-0.8,0.3h1.8v-2.8h1.4v2.8h1.6v-2.8h1.4v2.8h1.7l-0.6-0.2
			c0.4-0.6,0.9-1.6,1.1-2.4l1.5,0.4c-0.4,0.8-0.9,1.6-1.3,2.2h2.3v1.2h-4.2l1.2,0.3c-0.4,0.5-0.7,0.9-1,1.3h3.4v1.2h-5.7v1h4.9v1.1
			h-4.9v1H138.9z M129.6,17.4c0.3,0.4,0.6,1,0.8,1.4l-0.7,0.2h4.4l-0.6-0.2c0.3-0.4,0.7-1,0.9-1.4H129.6z M134.4,25
			c1.4,0.5,3.4,1.3,4.4,1.8l-1,0.9c-1-0.5-2.9-1.3-4.4-1.9L134.4,25z"/>
		<path d="M151.7,21.3c-0.4,1.3-1,2.4-1.7,3.3c1.8,0.8,3.5,1.6,4.7,2.3l-1.1,1.3c-1.1-0.8-2.8-1.7-4.7-2.5c-1.6,1.3-3.9,2.1-6.9,2.5
			c-0.1-0.4-0.6-1.1-0.9-1.5c2.6-0.3,4.6-0.8,6.1-1.8c-1.5-0.6-2.9-1.1-4.3-1.6c0.4-0.6,0.9-1.3,1.4-2.1H141v-1.4h4.1
			c0.5-0.9,0.9-1.8,1.2-2.7l1.7,0.3c-0.3,0.8-0.7,1.6-1.1,2.3h3.4c0.1-0.5,0.2-1,0.2-1.5l1.8,0.1c-0.1,0.5-0.2,0.9-0.3,1.4h2.7v1.4
			H151.7z M142.8,18.6h-1.5v-3.4h5.8c-0.2-0.5-0.5-1.1-0.7-1.5l1.6-0.4c0.3,0.6,0.7,1.3,0.9,1.9h5.4v3.4h-1.6v-2h-10V18.6z
			 M146.1,21.3c-0.3,0.5-0.6,1-0.9,1.5c1,0.4,2.1,0.7,3.2,1.2c0.7-0.7,1.2-1.6,1.5-2.6H146.1z"/>
		<path d="M164.6,26.4h6.1v1.3h-13.5v-1.3h5.9v-2.4h-4.3v-1.3h4.3v-2.2h-3.6v-1.3c-0.7,0.5-1.4,0.9-2.1,1.3
			c-0.2-0.4-0.6-0.9-0.9-1.2c1.9-0.8,4.1-2.4,5.7-4h-2.5v-1.4h5.1c1.4,2.1,4.1,4.2,6.7,5.2c-0.3,0.3-0.8,0.9-1,1.3
			c-0.7-0.3-1.4-0.7-2.1-1.2v1.2h-3.7v2.2h4.4v1.3h-4.4V26.4z M159.5,19.3h8.7c-1.6-1.1-3.2-2.5-4.3-4
			C162.7,16.7,161.1,18.1,159.5,19.3z"/>
		<path d="M182,21.8c-0.6,0.3-1.2,0.6-1.8,0.9h5.4v5.4h-1.4v-0.4h-6.6v0.5h-1.4v-3.9c-1,0.3-2,0.6-2.9,0.8c-0.1-0.3-0.5-1-0.7-1.3
			c2.2-0.4,4.5-1.1,6.5-2h-6.2v-1.2h5.9v-1h-4.2v-1.2h4.2v-0.9h-5v-3.4h12.4v3.4h-6v0.9h3.4v0.9c0.6-0.4,1.1-0.9,1.6-1.4l1.2,0.7
			c-0.7,0.7-1.5,1.4-2.4,2h3v1.2H182z M177.3,15.1h-2.2v1.3h2.2V15.1z M184.1,23.8h-6.6v0.9h6.6V23.8z M184.1,26.6v-1h-6.6v1H184.1z
			 M178.7,16.4h2.3v-1.3h-2.3V16.4z M181.5,20.6c0.6-0.3,1.1-0.7,1.6-1h-3v1H181.5z M182.3,16.4h2.3v-1.3h-2.3V16.4z"/>
	</g>
	<g>
		<path class="st4" d="M199.2,15.6v12.7h-1.4v-2.9c-1,0.2-2.1,0.4-3,0.6l-0.3-1.6c0.2,0,0.5-0.1,0.8-0.1v-8.7h-0.7V14h5.1v1.7H199.2
			z M197.8,15.6h-1.1v1.7h1.1V15.6z M197.8,18.9h-1.1v1.7h1.1V18.9z M197.8,23.9v-1.8h-1.1v2L197.8,23.9z M209.4,20.9
			c-0.5,1.5-1.2,2.9-2.1,4c0.2,0.8,0.4,1.2,0.6,1.3c0.2,0,0.4-0.7,0.4-1.9c0.2,0.4,0.9,0.9,1.1,1c-0.4,2.4-1.1,3-1.6,3
			c-0.8,0-1.3-0.7-1.7-1.9c-0.7,0.7-1.5,1.4-2.3,1.9c-0.2-0.3-0.7-0.8-1.1-1.1c0.4-0.2,0.7-0.5,1.1-0.8h-0.8V26h-1.5v1.2h-1.4v-7
			h4.3v5.7c0.4-0.4,0.9-0.8,1.3-1.3c-0.3-1.3-0.4-3-0.5-4.9h-5.6v-1.6h0.7c-0.1-0.5-0.2-1-0.3-1.5l1.3-0.2c0.2,0.5,0.3,1.2,0.4,1.7
			h0.9c0.1-0.5,0.3-1.2,0.3-1.7l1.4,0.2c-0.2,0.5-0.3,1-0.4,1.5h1.2c-0.1-1.5-0.1-3-0.1-4.7h1.6c0,1.6,0,3.2,0.1,4.7h2.7v1.6h-2.6
			c0.1,1.1,0.1,2,0.2,2.9c0.4-0.8,0.7-1.6,1-2.4L209.4,20.9z M204.7,16.4H200v-1.5h1.5c-0.1-0.4-0.3-0.8-0.4-1.2l1.6-0.3
			c0.2,0.4,0.4,1,0.5,1.5h1.5V16.4z M201.6,21.5v1h1.5v-1H201.6z M203.1,24.8v-1h-1.5v1H203.1z M207.7,17.7c-0.2-0.7-0.6-2-1-2.9
			l1.3-0.4c0.4,0.9,0.9,2.1,1.1,2.9L207.7,17.7z"/>
		<path class="st4" d="M222.1,21.5c-0.4,1.2-0.9,2.2-1.5,3c1.7,0.7,3.3,1.5,4.4,2.2l-1.4,1.7c-1.1-0.7-2.7-1.6-4.5-2.4
			c-1.6,1.3-3.9,2-6.9,2.4c-0.2-0.5-0.8-1.4-1.2-1.9c2.5-0.2,4.4-0.7,5.9-1.4c-1.4-0.6-2.8-1.1-4.1-1.5c0.4-0.6,0.9-1.3,1.3-2H211
			v-1.8h4.1c0.4-0.8,0.8-1.7,1.1-2.5l2.2,0.4c-0.3,0.7-0.6,1.4-0.9,2.1h2.8c0.1-0.4,0.1-0.9,0.2-1.5l2.3,0.1v-1.6h-9.5v1.8h-1.9
			v-3.6h5.7c-0.2-0.5-0.4-1-0.6-1.4l2.1-0.5c0.3,0.6,0.6,1.3,0.8,1.9h5.4v3.6h-2c-0.1,0.4-0.1,0.7-0.2,1.1h2.5v1.8H222.1z
			 M216.6,21.5c-0.2,0.4-0.5,0.8-0.7,1.2c0.9,0.3,1.8,0.6,2.8,1c0.5-0.6,0.9-1.3,1.2-2.2H216.6z"/>
		<path class="st4" d="M230.7,17.7c-0.2,0.5-0.5,1-0.8,1.4v9.2h-1.7v-6.7c-0.3,0.4-0.6,0.7-0.9,1c-0.2-0.4-0.7-1.3-1-1.7
			c1.1-1.1,2.3-2.7,3-4.3l1.4,0.5v-0.6h1.5c0-0.3,0.1-0.6,0.2-0.9h-1.2v-1.3h1.5c0.1-0.4,0.1-0.8,0.2-1.1l1.6,0.1l-0.1,1h2.4v2.2
			h0.8v1.5h-6.7V17.7z M230.7,14c-0.9,1.4-2.2,2.9-3.4,3.9c-0.2-0.4-0.6-1.1-0.9-1.5c1-0.8,2.1-2,2.6-3L230.7,14z M241.5,20.2h-1.1
			v6c0,0.8-0.1,1.4-0.7,1.6c-0.5,0.3-1.2,0.3-2.2,0.3c-0.1-0.5-0.2-1.2-0.4-1.7h-1.6v1.7h-1.7v-1.7h-3.1c0.1-0.7,0.3-1.6,0.4-2.4
			h-0.6v-1.4h3.2V22h-2.7v-3.3h5.7V22h-1.4v0.8h1.8v1.4h-1.8v1.1h2v1.3c0.4,0,0.7,0,0.8,0c0.2,0,0.2-0.1,0.2-0.2v-6h-1.4v-1.7h4.3
			V20.2z M233.8,25.2v-1.1h-1.2c0,0.4-0.1,0.7-0.1,1.1H233.8z M232.5,20.8h2.8v-0.9h-2.8V20.8z M234,15.8c0,0.3-0.1,0.6-0.1,0.9h1.2
			v-0.9H234z M241.3,16h-3.8v-1.7h3.8V16z"/>
		<path class="st4" d="M257.3,25.9H251v2.4h-2v-2.4h-6.2v-1.7h6.2v-0.9h-4.6v-6.3h4.5v-3.6h2v1.1h5.7V16h-5.7v0.9h5v6.3H251v0.9h6.3
			V25.9z M246.3,19.4h7.5v-0.9h-7.5V19.4z M246.3,21.8h7.5v-0.9h-7.5V21.8z"/>
		<path class="st4" d="M273.3,18.5c-0.5,1.6-1.1,3.1-2,4.4c0.2,0.7,0.4,1,0.6,1c0.2,0,0.3-0.6,0.4-1.9c0.4,0.4,0.8,0.7,1.2,0.9
			c-0.2,2.1-0.7,2.7-1.8,2.7c-0.6,0-1.1-0.5-1.5-1.3c-0.6,0.7-1.3,1.3-2.1,1.8c1.6,0,4.5,0,5.6-0.1c-0.3,0.4-0.6,1.3-0.7,1.9h-5.8
			c-3.1,0-5.2-0.4-6.6-2.5c-0.2,1-0.5,2-1.1,2.9c-0.2-0.4-0.9-1-1.2-1.2c1-1.8,1.1-4.3,1-6.5l1.6,0.1c0,0.6,0,1.2,0,1.9
			c0.2,0.7,0.5,1.2,0.9,1.7v-4.5h-3.1v-1.7h2.7v-1.4h-2.2v-1.7h2.2v-1.7h1.8v1.7h2.2v1.7h-2.2v1.4h2.4v1.7h-2.1v1.7h1.8V23
			c0.3-0.2,0.7-0.6,0.7-1.2v-5.9h2.9c0-0.8-0.1-1.7-0.1-2.5h1.7c0,0.9,0,1.7,0,2.5h1.3c-0.3-0.5-0.8-1.2-1.2-1.8l1.3-0.7
			c0.5,0.6,1.1,1.4,1.4,1.8l-1.1,0.6h1.2v1.6h-2.8c0.1,1.1,0.2,2.1,0.3,3c0.4-0.8,0.7-1.6,0.9-2.4L273.3,18.5z M263.5,25.6
			c1,0.4,2.2,0.5,3.7,0.5h0.9c-0.3-0.4-0.8-1-1.1-1.3c1-0.5,1.9-1.3,2.7-2.3c-0.3-1.4-0.6-3.1-0.7-5h-1.3v4.2l1.1-0.7
			c0.1,0.4,0.3,1.1,0.4,1.5c-2.5,1.6-3,1.9-3.3,2.2c-0.1-0.4-0.4-1.1-0.7-1.5h-1.8V25.6z"/>
		<path class="st4" d="M276.5,24.1c-0.1,1.4-0.4,2.9-0.7,3.9c-0.3-0.2-1-0.4-1.3-0.5c0.4-0.9,0.5-2.4,0.6-3.6L276.5,24.1z
			 M289.2,26.4c0,0.8-0.1,1.3-0.6,1.6c-0.5,0.3-1.2,0.3-2.2,0.3c-0.1-0.5-0.3-1.2-0.5-1.6c0.5,0,1.2,0,1.4,0c0.2,0,0.3-0.1,0.3-0.3
			V15.7h-5.2v12.6h-1.7v-5.7l-1.3,0.5c0-0.2-0.1-0.4-0.2-0.7c-3.1,0.5-3.7,0.7-4,0.8c-0.1-0.3-0.3-1.1-0.5-1.5
			c0.4-0.1,0.7-0.5,1.2-1.1c0.2-0.2,0.6-0.7,1-1.4c-1.2,0.1-1.6,0.2-1.8,0.4c-0.1-0.3-0.3-1.1-0.5-1.5c0.3-0.1,0.6-0.4,0.9-0.9
			c0.3-0.4,1.3-2.2,1.8-3.9l1.5,0.6c-0.6,1.3-1.3,2.8-2.1,3.9l1.1-0.1c0.4-0.7,0.8-1.5,1.1-2.3l1.4,0.9c-0.9,1.7-2,3.5-3.2,5
			l1.7-0.2c-0.1-0.4-0.3-0.8-0.4-1.1l1.2-0.5c0.4,0.9,0.8,2.1,1,2.8V14h8.5V26.4z M278.1,23.8c0.2,1.1,0.4,2.4,0.4,3.3l-1.3,0.4
			c0-0.9-0.2-2.3-0.3-3.4L278.1,23.8z M279.7,23.3c0.4,1,0.8,2.2,0.9,3l-1.2,0.5c-0.1-0.8-0.5-2.1-0.8-3.1L279.7,23.3z M286.1,24.1
			c0.3,0,0.7,0,0.9-0.1c0,0.4,0.1,0.9,0.1,1.3c-0.2,0.1-0.6,0.1-1,0.1h-1.3c-1.4,0-1.6-0.5-1.6-1.8v-0.9h-0.5v-1.4h1.6
			c-0.1-0.3-0.3-0.7-0.4-1l1-0.3h-2.3v-1.4h0.9c-0.1-0.6-0.3-1.4-0.6-2.1L284,16c0.3,0.7,0.6,1.5,0.7,2.1l-0.9,0.3h1.4
			c0.2-0.7,0.5-1.7,0.6-2.4l1.3,0.3c-0.2,0.7-0.4,1.5-0.6,2.1h0.8v1.4h-1.9c0.2,0.4,0.4,0.8,0.5,1.1l-0.6,0.2h2v1.4h-2.4v1
			c0,0.4,0,0.5,0.3,0.5H286.1z"/>
		<path class="st4" d="M296.1,14h1.6l-5.7,15.8h-1.6L296.1,14z"/>
		<path class="st4" d="M313.3,26.4v1.5h-14.5v-1.5h6.2v-0.8h-5v-1.4h5v-0.7h-4.5v-5.1h4.5v-0.6h-6.1v-1.5h6.1v-0.7
			c-1.5,0.1-3.1,0.1-4.5,0.1c0-0.4-0.2-1.1-0.4-1.5c3.7-0.1,8.1-0.4,10.8-0.8l0.9,1.5c-1.4,0.2-3.1,0.4-4.8,0.5v0.8h6.3v1.5h-6.3
			v0.6h4.8v5.1h-4.8v0.7h5.3v1.4h-5.3v0.8H313.3z M302.4,20.3h2.7v-0.7h-2.7V20.3z M305,22.1v-0.7h-2.7v0.7H305z M306.9,19.5v0.7
			h2.8v-0.7H306.9z M309.7,21.4h-2.8v0.7h2.8V21.4z"/>
		<path class="st4" d="M323.5,19.6c1.1,3.1,3,5.6,6,6.9c-0.5,0.4-1.1,1.2-1.4,1.8c-2.9-1.4-4.8-3.7-6-6.8c-0.9,2.7-2.6,5.2-6,6.8
			c-0.3-0.5-0.9-1.2-1.4-1.6c3.7-1.6,5.2-4.3,5.8-7H315v-2h5.8c0.2-1.5,0.1-3,0.2-4.3h2.1c0,1.3,0,2.8-0.2,4.3h6.3v2H323.5z"/>
		<path class="st4" d="M335.2,15.6v12.7h-1.4v-2.9c-1,0.2-2.1,0.4-3,0.6l-0.3-1.6c0.2,0,0.5-0.1,0.8-0.1v-8.7h-0.7V14h5.1v1.7H335.2
			z M333.8,15.6h-1.1v1.7h1.1V15.6z M333.8,18.9h-1.1v1.7h1.1V18.9z M333.8,23.9v-1.8h-1.1v2L333.8,23.9z M345.4,20.9
			c-0.5,1.5-1.2,2.9-2.1,4c0.2,0.8,0.4,1.2,0.6,1.3c0.2,0,0.4-0.7,0.4-1.9c0.2,0.4,0.9,0.9,1.1,1c-0.4,2.4-1.1,3-1.6,3
			c-0.8,0-1.3-0.7-1.7-1.9c-0.7,0.7-1.5,1.4-2.3,1.9c-0.2-0.3-0.7-0.8-1.1-1.1c0.4-0.2,0.7-0.5,1.1-0.8h-0.8V26h-1.5v1.2h-1.4v-7
			h4.3v5.7c0.4-0.4,0.9-0.8,1.3-1.3c-0.3-1.3-0.4-3-0.5-4.9h-5.6v-1.6h0.7c-0.1-0.5-0.2-1-0.3-1.5l1.3-0.2c0.2,0.5,0.3,1.2,0.4,1.7
			h0.9c0.1-0.5,0.3-1.2,0.3-1.7l1.4,0.2c-0.2,0.5-0.3,1-0.4,1.5h1.2c-0.1-1.5-0.1-3-0.1-4.7h1.6c0,1.6,0,3.2,0.1,4.7h2.7v1.6h-2.6
			c0.1,1.1,0.1,2,0.2,2.9c0.4-0.8,0.7-1.6,1-2.4L345.4,20.9z M340.7,16.4H336v-1.5h1.5c-0.1-0.4-0.3-0.8-0.4-1.2l1.6-0.3
			c0.2,0.4,0.4,1,0.5,1.5h1.5V16.4z M337.6,21.5v1h1.5v-1H337.6z M339.1,24.8v-1h-1.5v1H339.1z M343.7,17.7c-0.2-0.7-0.6-2-1-2.9
			l1.3-0.4c0.4,0.9,0.9,2.1,1.1,2.9L343.7,17.7z"/>
		<path class="st4" d="M354.9,19.5c0,0.5-0.1,0.9-0.1,1.3c0.7,3.6,2.3,5.3,6.8,5.7c-0.4,0.4-0.9,1.2-1.1,1.8
			c-3.6-0.5-5.4-1.8-6.5-4.1c-0.9,1.9-2.6,3.3-6.4,4.1c-0.2-0.5-0.7-1.3-1.1-1.7c5.7-1.1,6-3.4,6.2-7.1H354.9z M349.9,19.7
			c-0.5-0.9-1.5-2.1-2.5-3.3c0.8-1,1.7-2.2,2.2-3l2,0.5c-0.6,0.9-1.3,1.7-2,2.5c0.9,0.9,1.7,1.9,2.2,2.6L349.9,19.7z M349.5,20.1
			c0.6,1.1,1.3,2.6,1.6,3.5l-1.9,0.8c-0.3-0.9-1-2.4-1.5-3.6L349.5,20.1z M354.4,19.4c-0.5-0.8-1.6-2-2.7-3.2c0.9-1,1.8-2.1,2.3-2.9
			l2,0.5c-0.7,0.9-1.4,1.7-2.1,2.4c0.9,0.8,1.8,1.8,2.3,2.5L354.4,19.4z M359,19.7c-0.6-0.9-1.7-2.2-3-3.3c1-1,2-2.2,2.6-3l2,0.6
			c-0.7,0.9-1.5,1.7-2.3,2.4c1,0.8,2,1.9,2.6,2.6L359,19.7z M356.7,23.6c0.7-0.9,1.4-2.3,1.8-3.4l2.1,0.5c-0.7,1.2-1.5,2.5-2.2,3.4
			L356.7,23.6z"/>
		<path class="st4" d="M368.9,14.4c-1.2,2.6-3,5.3-4.8,7c-0.4-0.4-1.2-1.2-1.7-1.6c1.7-1.4,3.4-3.7,4.3-6.1L368.9,14.4z M373.4,21.7
			c1.3,1.8,2.8,4,3.6,5.5l-2,1c-0.2-0.5-0.5-1-0.8-1.6c-7.7,0.6-8.8,0.7-9.6,1c-0.1-0.4-0.5-1.5-0.8-2c0.5-0.1,1-0.6,1.6-1.3
			c0.7-0.7,2.7-3.4,3.9-6.1l2.2,0.9c-1.2,2.2-2.8,4.3-4.3,6l5.9-0.4c-0.5-0.8-1-1.6-1.5-2.3L373.4,21.7z M373.7,13.7
			c0.7,2.2,2.1,4.5,4.1,5.7c-0.4,0.4-1.1,1.3-1.4,1.9c-1.8-1.4-3.2-3.5-4.1-5.6h-2.6v-2H373.7z"/>
		<path class="st4" d="M381.2,19.6v8.7h-1.9V14h6.2v5.7H381.2z M381.2,15.3v0.8h2.5v-0.8H381.2z M383.7,18.3v-0.9h-2.5v0.9H383.7z
			 M388.4,24.7V28h-1.7v-3.3h-1.5c-0.2,1.1-0.7,2.7-2,3.6c-0.3-0.3-0.8-0.8-1.2-1.1c1-0.6,1.5-1.7,1.6-2.5h-1.6v-1.6h1.7V22h-1.5
			v-1.5h7.7V22h-1.5v1.2h1.8v1.6H388.4z M386.7,23.2V22h-1.5v1.2H386.7z M392.8,26.1c0,1-0.2,1.5-0.8,1.8c-0.6,0.3-1.4,0.4-2.6,0.4
			c-0.1-0.5-0.3-1.4-0.6-1.9c0.7,0,1.5,0,1.7,0c0.3,0,0.3-0.1,0.3-0.3v-6.4h-4.4V14h6.3V26.1z M388.4,15.3v0.8h2.6v-0.8H388.4z
			 M390.9,18.3v-0.9h-2.6v0.9H390.9z"/>
		<path class="st4" d="M396.5,24.1c-0.1,1.4-0.4,2.9-0.7,3.9c-0.3-0.2-1-0.4-1.3-0.5c0.4-0.9,0.5-2.4,0.6-3.6L396.5,24.1z
			 M409.2,26.4c0,0.8-0.1,1.3-0.6,1.6c-0.5,0.3-1.2,0.3-2.2,0.3c-0.1-0.5-0.3-1.2-0.5-1.6c0.5,0,1.2,0,1.4,0c0.2,0,0.3-0.1,0.3-0.3
			V15.7h-5.2v12.6h-1.7v-5.7l-1.3,0.5c0-0.2-0.1-0.4-0.2-0.7c-3.1,0.5-3.7,0.7-4,0.8c-0.1-0.3-0.3-1.1-0.5-1.5
			c0.4-0.1,0.7-0.5,1.2-1.1c0.2-0.2,0.6-0.7,1-1.4c-1.2,0.1-1.6,0.2-1.8,0.4c-0.1-0.3-0.3-1.1-0.5-1.5c0.3-0.1,0.6-0.4,0.9-0.9
			c0.3-0.4,1.3-2.2,1.8-3.9l1.5,0.6c-0.6,1.3-1.3,2.8-2.1,3.9l1.1-0.1c0.4-0.7,0.8-1.5,1.1-2.3l1.4,0.9c-0.9,1.7-2,3.5-3.2,5
			l1.7-0.2c-0.1-0.4-0.3-0.8-0.4-1.1l1.2-0.5c0.4,0.9,0.8,2.1,1,2.8V14h8.5V26.4z M398.1,23.8c0.2,1.1,0.4,2.4,0.4,3.3l-1.3,0.4
			c0-0.9-0.2-2.3-0.3-3.4L398.1,23.8z M399.7,23.3c0.4,1,0.8,2.2,0.9,3l-1.2,0.5c-0.1-0.8-0.5-2.1-0.8-3.1L399.7,23.3z M406.1,24.1
			c0.3,0,0.7,0,0.9-0.1c0,0.4,0.1,0.9,0.1,1.3c-0.2,0.1-0.6,0.1-1,0.1h-1.3c-1.4,0-1.6-0.5-1.6-1.8v-0.9h-0.5v-1.4h1.6
			c-0.1-0.3-0.3-0.7-0.4-1l1-0.3h-2.3v-1.4h0.9c-0.1-0.6-0.3-1.4-0.6-2.1L404,16c0.3,0.7,0.6,1.5,0.7,2.1l-0.9,0.3h1.4
			c0.2-0.7,0.5-1.7,0.6-2.4l1.3,0.3c-0.2,0.7-0.4,1.5-0.6,2.1h0.8v1.4h-1.9c0.2,0.4,0.4,0.8,0.5,1.1l-0.6,0.2h2v1.4h-2.4v1
			c0,0.4,0,0.5,0.3,0.5H406.1z"/>
	</g>
	<g>
		<path d="M64.4,33.9c1,0,1.9,0.4,2.6,1.1c0.7,0.7,1.1,1.6,1.1,2.6c0,1-0.4,1.9-1.1,2.6c-0.7,0.7-1.6,1.1-2.6,1.1
			c-1,0-1.9-0.4-2.6-1.1c-0.7-0.7-1.1-1.6-1.1-2.6c0-0.7,0.2-1.3,0.5-1.9c0.3-0.6,0.8-1,1.3-1.3C63.2,34.1,63.8,33.9,64.4,33.9z
			 M64.5,34.6c-0.5,0-1,0.1-1.5,0.4s-0.8,0.6-1.1,1.1c-0.3,0.5-0.4,1-0.4,1.5c0,0.8,0.3,1.5,0.9,2.1s1.3,0.9,2.1,0.9
			c0.5,0,1-0.1,1.5-0.4c0.5-0.3,0.8-0.6,1.1-1.1c0.3-0.5,0.4-1,0.4-1.5c0-0.6-0.1-1-0.4-1.5S66.4,35.3,66,35S65,34.6,64.5,34.6z"/>
		<path d="M76,35.4l-0.5,0.4c-0.3-0.4-0.7-0.7-1.1-0.9c-0.4-0.2-0.9-0.3-1.4-0.3c-0.6,0-1.1,0.1-1.5,0.4s-0.8,0.6-1.1,1.1
			c-0.3,0.4-0.4,1-0.4,1.5c0,0.8,0.3,1.6,0.9,2.1s1.3,0.8,2.2,0.8c1,0,1.8-0.4,2.4-1.1l0.5,0.4c-0.3,0.4-0.8,0.8-1.3,1
			c-0.5,0.2-1.1,0.4-1.7,0.4c-1.2,0-2.2-0.4-2.9-1.2c-0.6-0.7-0.9-1.5-0.9-2.5c0-1,0.4-1.9,1.1-2.6c0.7-0.7,1.6-1,2.7-1
			c0.6,0,1.2,0.1,1.8,0.4C75.2,34.6,75.7,34.9,76,35.4z"/>
		<path d="M83.8,35.4l-0.5,0.4c-0.3-0.4-0.7-0.7-1.1-0.9c-0.4-0.2-0.9-0.3-1.4-0.3c-0.6,0-1.1,0.1-1.5,0.4s-0.8,0.6-1.1,1.1
			c-0.3,0.4-0.4,1-0.4,1.5c0,0.8,0.3,1.6,0.9,2.1s1.3,0.8,2.2,0.8c1,0,1.8-0.4,2.4-1.1l0.5,0.4c-0.3,0.4-0.8,0.8-1.3,1
			c-0.5,0.2-1.1,0.4-1.7,0.4c-1.2,0-2.2-0.4-2.9-1.2c-0.6-0.7-0.9-1.5-0.9-2.5c0-1,0.4-1.9,1.1-2.6c0.7-0.7,1.6-1,2.7-1
			c0.6,0,1.2,0.1,1.8,0.4C83.1,34.6,83.5,34.9,83.8,35.4z"/>
		<path d="M85.3,34.1h0.7v4.2c0,0.5,0,0.8,0,0.9c0,0.3,0.1,0.5,0.2,0.7c0.1,0.2,0.3,0.3,0.6,0.5s0.5,0.2,0.8,0.2
			c0.2,0,0.4,0,0.7-0.1c0.2-0.1,0.4-0.2,0.5-0.4c0.1-0.2,0.2-0.4,0.3-0.6c0-0.2,0.1-0.5,0.1-1.1v-4.2h0.7v4.2c0,0.6-0.1,1.1-0.2,1.5
			c-0.1,0.4-0.4,0.7-0.7,1c-0.4,0.3-0.8,0.4-1.3,0.4c-0.6,0-1-0.1-1.4-0.4c-0.4-0.3-0.7-0.6-0.8-1.1c-0.1-0.3-0.1-0.8-0.1-1.5V34.1z
			"/>
		<path d="M91.5,34.1h1.4c0.8,0,1.3,0,1.6,0.1c0.4,0.1,0.7,0.3,1,0.6c0.3,0.3,0.4,0.7,0.4,1.1c0,0.5-0.1,0.8-0.4,1.1
			c-0.2,0.3-0.6,0.5-1,0.6c-0.3,0.1-0.9,0.1-1.8,0.1h-0.5V41h-0.7V34.1z M92.2,34.8v2.4l1.2,0c0.5,0,0.8,0,1-0.1
			c0.2-0.1,0.4-0.2,0.5-0.4c0.1-0.2,0.2-0.4,0.2-0.6c0-0.2-0.1-0.4-0.2-0.6c-0.1-0.2-0.3-0.3-0.5-0.4c-0.2-0.1-0.5-0.1-1-0.1H92.2z"
			/>
		<path d="M100.1,34.1l3.2,6.9h-0.7l-1.1-2.3h-3L97.4,41h-0.8l3.3-6.9H100.1z M100,35.6l-1.2,2.5h2.4L100,35.6z"/>
		<path d="M103.7,34.8v-0.7h3.8v0.7H106V41h-0.7v-6.3H103.7z"/>
		<path d="M108.4,34.1h0.7V41h-0.7V34.1z"/>
		<path d="M114,33.9c1,0,1.9,0.4,2.6,1.1c0.7,0.7,1.1,1.6,1.1,2.6c0,1-0.4,1.9-1.1,2.6c-0.7,0.7-1.6,1.1-2.6,1.1
			c-1,0-1.9-0.4-2.6-1.1c-0.7-0.7-1.1-1.6-1.1-2.6c0-0.7,0.2-1.3,0.5-1.9c0.3-0.6,0.8-1,1.3-1.3C112.7,34.1,113.3,33.9,114,33.9z
			 M114,34.6c-0.5,0-1,0.1-1.5,0.4s-0.8,0.6-1.1,1.1c-0.3,0.5-0.4,1-0.4,1.5c0,0.8,0.3,1.5,0.9,2.1s1.3,0.9,2.1,0.9
			c0.5,0,1-0.1,1.5-0.4c0.5-0.3,0.8-0.6,1.1-1.1c0.3-0.5,0.4-1,0.4-1.5c0-0.6-0.1-1-0.4-1.5s-0.6-0.8-1.1-1.1S114.5,34.6,114,34.6z"
			/>
		<path d="M119.1,41v-6.9h0.2l4.6,5.3v-5.3h0.7V41h-0.2l-4.6-5.2V41H119.1z"/>
		<path d="M129.1,34.1l3.2,6.9h-0.7l-1.1-2.3h-3l-1.1,2.3h-0.8l3.3-6.9H129.1z M129,35.6l-1.2,2.5h2.4L129,35.6z"/>
		<path d="M133.4,34.1h0.7v6.3h2.7V41h-3.4V34.1z"/>
		<path d="M139.8,39.7l0.6-0.4c0.4,0.8,0.9,1.1,1.4,1.1c0.2,0,0.5-0.1,0.7-0.2c0.2-0.1,0.4-0.3,0.5-0.4c0.1-0.2,0.2-0.4,0.2-0.6
			c0-0.2-0.1-0.5-0.2-0.7c-0.2-0.3-0.6-0.7-1.2-1.1c-0.6-0.4-0.9-0.8-1.1-0.9c-0.2-0.3-0.4-0.7-0.4-1.1c0-0.3,0.1-0.6,0.2-0.8
			s0.3-0.4,0.6-0.6s0.5-0.2,0.9-0.2c0.3,0,0.6,0.1,0.9,0.2c0.3,0.2,0.6,0.5,0.9,0.9l-0.6,0.4c-0.3-0.3-0.5-0.6-0.7-0.7
			c-0.2-0.1-0.4-0.2-0.6-0.2c-0.3,0-0.5,0.1-0.7,0.3c-0.2,0.2-0.3,0.4-0.3,0.6c0,0.2,0,0.3,0.1,0.4c0.1,0.1,0.2,0.3,0.3,0.5
			c0.1,0.1,0.4,0.3,0.9,0.7c0.6,0.4,1,0.8,1.2,1.2s0.3,0.7,0.3,1c0,0.5-0.2,0.9-0.6,1.3s-0.8,0.6-1.4,0.6c-0.4,0-0.8-0.1-1.1-0.3
			C140.4,40.6,140.1,40.3,139.8,39.7z"/>
		<path d="M148.1,34.1l3.2,6.9h-0.7l-1.1-2.3h-3l-1.1,2.3h-0.8l3.3-6.9H148.1z M148,35.6l-1.2,2.5h2.4L148,35.6z"/>
		<path d="M152.4,34.1h3.5v0.7h-2.8v2.2h2.8v0.7h-2.8V41h-0.7V34.1z"/>
		<path d="M157.1,34.1h4v0.7h-3.3v2.2h3.3v0.7h-3.3v2.7h3.3V41h-3.9V34.1z"/>
		<path d="M161.6,34.8v-0.7h3.8v0.7h-1.5V41h-0.7v-6.3H161.6z"/>
		<path d="M165.9,34.1h0.8l1.8,2.9l1.7-2.9h0.8l-2.2,3.6V41h-0.7v-3.3L165.9,34.1z"/>
		<path d="M177.6,34.1l3.2,6.9h-0.7l-1.1-2.3h-3l-1.1,2.3h-0.8l3.3-6.9H177.6z M177.5,35.6l-1.2,2.5h2.4L177.5,35.6z"/>
		<path d="M181.9,41v-6.9h0.2l4.6,5.3v-5.3h0.7V41h-0.2l-4.6-5.2V41H181.9z"/>
		<path d="M189.1,41v-6.9h1.4c1,0,1.8,0.1,2.3,0.2c0.7,0.2,1.2,0.6,1.6,1.2c0.4,0.6,0.6,1.3,0.6,2.1c0,0.7-0.2,1.3-0.5,1.8
			c-0.3,0.5-0.7,0.9-1.2,1.2s-1.2,0.4-2,0.4H189.1z M189.7,40.4h0.8c1,0,1.6-0.1,2-0.2c0.5-0.2,0.9-0.5,1.2-0.9
			c0.3-0.4,0.4-1,0.4-1.6c0-0.7-0.2-1.2-0.5-1.7c-0.3-0.5-0.8-0.8-1.4-1c-0.4-0.1-1.1-0.2-2.1-0.2h-0.5V40.4z"/>
		<path d="M198.9,34.1h0.7V37h3.5v-2.9h0.7V41h-0.7v-3.3h-3.5V41h-0.7V34.1z"/>
		<path d="M205.5,34.1h4v0.7h-3.3v2.2h3.3v0.7h-3.3v2.7h3.3V41h-3.9V34.1z"/>
		<path d="M213.5,34.1l3.2,6.9H216l-1.1-2.3h-3l-1.1,2.3h-0.8l3.3-6.9H213.5z M213.4,35.6l-1.2,2.5h2.4L213.4,35.6z"/>
		<path d="M217.8,34.1h0.7v6.3h2.7V41h-3.4V34.1z"/>
		<path d="M221.6,34.8v-0.7h3.8v0.7h-1.5V41h-0.7v-6.3H221.6z"/>
		<path d="M226.4,34.1h0.7V37h3.5v-2.9h0.7V41h-0.7v-3.3h-3.5V41h-0.7V34.1z"/>
		<path d="M238.5,34.1l3.2,6.9H241l-1.1-2.3h-3l-1.1,2.3h-0.8l3.3-6.9H238.5z M238.4,35.6l-1.2,2.5h2.4L238.4,35.6z"/>
		<path d="M242.8,41v-6.9h1.4c1,0,1.8,0.1,2.3,0.2c0.7,0.2,1.2,0.6,1.6,1.2c0.4,0.6,0.6,1.3,0.6,2.1c0,0.7-0.1,1.3-0.5,1.8
			c-0.3,0.5-0.7,0.9-1.2,1.2c-0.5,0.3-1.2,0.4-2,0.4H242.8z M243.5,40.4h0.8c1,0,1.6-0.1,2-0.2c0.5-0.2,0.9-0.5,1.2-0.9
			c0.3-0.4,0.4-1,0.4-1.6c0-0.7-0.2-1.2-0.5-1.7c-0.3-0.5-0.8-0.8-1.4-1c-0.4-0.1-1.1-0.2-2.1-0.2h-0.5V40.4z"/>
		<path d="M249.7,41l1-6.9h0.1l2.8,5.7l2.8-5.7h0.1l1,6.9h-0.7l-0.7-5l-2.5,5h-0.2l-2.5-5l-0.7,5H249.7z"/>
		<path d="M258.8,34.1h0.7V41h-0.7V34.1z"/>
		<path d="M261,41v-6.9h0.2l4.6,5.3v-5.3h0.7V41h-0.2l-4.6-5.2V41H261z"/>
		<path d="M268.1,34.1h0.7V41h-0.7V34.1z"/>
		<path d="M269.6,39.7l0.6-0.4c0.4,0.8,0.9,1.1,1.4,1.1c0.2,0,0.5-0.1,0.7-0.2s0.4-0.3,0.5-0.4c0.1-0.2,0.2-0.4,0.2-0.6
			c0-0.2-0.1-0.5-0.2-0.7c-0.2-0.3-0.6-0.7-1.2-1.1c-0.6-0.4-0.9-0.8-1.1-0.9c-0.2-0.3-0.4-0.7-0.4-1.1c0-0.3,0.1-0.6,0.2-0.8
			s0.3-0.4,0.6-0.6s0.5-0.2,0.9-0.2c0.3,0,0.6,0.1,0.9,0.2c0.3,0.2,0.6,0.5,0.9,0.9l-0.6,0.4c-0.3-0.3-0.5-0.6-0.7-0.7
			c-0.2-0.1-0.4-0.2-0.6-0.2c-0.3,0-0.5,0.1-0.7,0.3c-0.2,0.2-0.3,0.4-0.3,0.6c0,0.2,0,0.3,0.1,0.4c0.1,0.1,0.2,0.3,0.3,0.5
			c0.1,0.1,0.4,0.3,0.9,0.7c0.6,0.4,1,0.8,1.2,1.2c0.2,0.3,0.3,0.7,0.3,1c0,0.5-0.2,0.9-0.6,1.3s-0.8,0.6-1.4,0.6
			c-0.4,0-0.8-0.1-1.1-0.3C270.3,40.6,269.9,40.3,269.6,39.7z"/>
		<path d="M274.5,34.8v-0.7h3.8v0.7h-1.5V41H276v-6.3H274.5z"/>
		<path d="M279.3,34.1h1.4c0.8,0,1.3,0,1.6,0.1c0.4,0.1,0.7,0.3,1,0.6c0.3,0.3,0.4,0.7,0.4,1.1c0,0.4-0.1,0.7-0.3,1
			c-0.2,0.3-0.4,0.5-0.8,0.6c-0.3,0.1-0.8,0.2-1.4,0.2l2.5,3.2h-0.9l-2.5-3.2H280V41h-0.7V34.1z M280,34.8v2.4l1.2,0
			c0.5,0,0.8,0,1-0.1c0.2-0.1,0.4-0.2,0.5-0.4c0.1-0.2,0.2-0.4,0.2-0.6c0-0.2-0.1-0.4-0.2-0.6c-0.1-0.2-0.3-0.3-0.5-0.4
			c-0.2-0.1-0.5-0.1-1-0.1H280z"/>
		<path d="M288,34.1l3.2,6.9h-0.7l-1.1-2.3h-3l-1.1,2.3h-0.8l3.3-6.9H288z M287.9,35.6l-1.2,2.5h2.4L287.9,35.6z"/>
		<path d="M291.6,34.8v-0.7h3.8v0.7h-1.5V41h-0.7v-6.3H291.6z"/>
		<path d="M296.3,34.1h0.7V41h-0.7V34.1z"/>
		<path d="M301.9,33.9c1.1,0,1.9,0.4,2.6,1.1c0.7,0.7,1.1,1.6,1.1,2.6c0,1-0.4,1.9-1.1,2.6c-0.7,0.7-1.6,1.1-2.6,1.1
			c-1,0-1.9-0.4-2.6-1.1c-0.7-0.7-1.1-1.6-1.1-2.6c0-0.7,0.2-1.3,0.5-1.9c0.3-0.6,0.8-1,1.3-1.3S301.2,33.9,301.9,33.9z M301.9,34.6
			c-0.5,0-1,0.1-1.5,0.4c-0.5,0.3-0.8,0.6-1.1,1.1s-0.4,1-0.4,1.5c0,0.8,0.3,1.5,0.9,2.1s1.3,0.9,2.1,0.9c0.5,0,1-0.1,1.5-0.4
			c0.5-0.3,0.8-0.6,1.1-1.1c0.3-0.5,0.4-1,0.4-1.5c0-0.6-0.1-1-0.4-1.5s-0.6-0.8-1.1-1.1C302.9,34.7,302.4,34.6,301.9,34.6z"/>
		<path d="M307,41v-6.9h0.2l4.6,5.3v-5.3h0.7V41h-0.2l-4.6-5.2V41H307z"/>
		<path d="M314.6,39.8l0.6,0.3l-1,1.8l-0.5-0.2L314.6,39.8z"/>
		<path d="M319.1,41l1-6.9h0.1l2.8,5.7l2.8-5.7h0.1l1,6.9h-0.7l-0.7-5l-2.5,5H323l-2.5-5l-0.7,5H319.1z"/>
		<path d="M328.2,34.1h0.7V41h-0.7V34.1z"/>
		<path d="M330.5,41v-6.9h0.2l4.6,5.3v-5.3h0.7V41h-0.2l-4.6-5.2V41H330.5z"/>
		<path d="M337.5,34.1h0.7V41h-0.7V34.1z"/>
		<path d="M339.1,39.7l0.6-0.4c0.4,0.8,0.9,1.1,1.4,1.1c0.2,0,0.5-0.1,0.7-0.2s0.4-0.3,0.5-0.4c0.1-0.2,0.2-0.4,0.2-0.6
			c0-0.2-0.1-0.5-0.2-0.7c-0.2-0.3-0.6-0.7-1.2-1.1c-0.6-0.4-0.9-0.8-1.1-0.9c-0.2-0.3-0.4-0.7-0.4-1.1c0-0.3,0.1-0.6,0.2-0.8
			s0.3-0.4,0.6-0.6s0.5-0.2,0.9-0.2c0.3,0,0.6,0.1,0.9,0.2c0.3,0.2,0.6,0.5,0.9,0.9l-0.6,0.4c-0.3-0.3-0.5-0.6-0.7-0.7
			c-0.2-0.1-0.4-0.2-0.6-0.2c-0.3,0-0.5,0.1-0.7,0.3c-0.2,0.2-0.3,0.4-0.3,0.6c0,0.2,0,0.3,0.1,0.4c0.1,0.1,0.2,0.3,0.3,0.5
			c0.1,0.1,0.4,0.3,0.9,0.7c0.6,0.4,1,0.8,1.2,1.2c0.2,0.3,0.3,0.7,0.3,1c0,0.5-0.2,0.9-0.6,1.3s-0.8,0.6-1.4,0.6
			c-0.4,0-0.8-0.1-1.1-0.3C339.7,40.6,339.4,40.3,339.1,39.7z"/>
		<path d="M343.9,34.8v-0.7h3.8v0.7h-1.5V41h-0.7v-6.3H343.9z"/>
		<path d="M348.8,34.1h1.4c0.8,0,1.3,0,1.6,0.1c0.4,0.1,0.7,0.3,1,0.6c0.3,0.3,0.4,0.7,0.4,1.1c0,0.4-0.1,0.7-0.3,1
			c-0.2,0.3-0.4,0.5-0.8,0.6c-0.3,0.1-0.8,0.2-1.4,0.2l2.5,3.2h-0.9l-2.5-3.2h-0.4V41h-0.7V34.1z M349.5,34.8v2.4l1.2,0
			c0.5,0,0.8,0,1-0.1c0.2-0.1,0.4-0.2,0.5-0.4c0.1-0.2,0.2-0.4,0.2-0.6c0-0.2-0.1-0.4-0.2-0.6c-0.1-0.2-0.3-0.3-0.5-0.4
			c-0.2-0.1-0.5-0.1-1-0.1H349.5z"/>
		<path d="M354,34.1h0.8l1.8,2.9l1.7-2.9h0.8l-2.2,3.6V41h-0.7v-3.3L354,34.1z"/>
		<path d="M366.3,33.9c1.1,0,1.9,0.4,2.6,1.1c0.7,0.7,1.1,1.6,1.1,2.6c0,1-0.4,1.9-1.1,2.6c-0.7,0.7-1.6,1.1-2.6,1.1
			c-1,0-1.9-0.4-2.6-1.1c-0.7-0.7-1.1-1.6-1.1-2.6c0-0.7,0.2-1.3,0.5-1.9c0.3-0.6,0.8-1,1.3-1.3S365.6,33.9,366.3,33.9z M366.3,34.6
			c-0.5,0-1,0.1-1.5,0.4c-0.5,0.3-0.8,0.6-1.1,1.1s-0.4,1-0.4,1.5c0,0.8,0.3,1.5,0.9,2.1s1.3,0.9,2.1,0.9c0.5,0,1-0.1,1.5-0.4
			c0.5-0.3,0.8-0.6,1.1-1.1c0.3-0.5,0.4-1,0.4-1.5c0-0.6-0.1-1-0.4-1.5s-0.6-0.8-1.1-1.1C367.3,34.7,366.8,34.6,366.3,34.6z"/>
		<path d="M371.4,34.1h3.5v0.7h-2.8v2.2h2.8v0.7h-2.8V41h-0.7V34.1z"/>
		<path d="M378.7,34.1h0.7v6.3h2.7V41h-3.4V34.1z"/>
		<path d="M386,34.1l3.2,6.9h-0.7l-1.1-2.3h-3l-1.1,2.3h-0.8l3.3-6.9H386z M385.9,35.6l-1.2,2.5h2.4L385.9,35.6z"/>
		<path d="M390.3,34.1h1.4c0.5,0,1,0.1,1.3,0.2c0.3,0.1,0.5,0.3,0.7,0.6c0.2,0.3,0.3,0.6,0.3,0.9c0,0.3-0.1,0.6-0.2,0.8
			s-0.4,0.5-0.7,0.6c0.4,0.1,0.6,0.3,0.8,0.4c0.2,0.2,0.3,0.4,0.5,0.6s0.2,0.5,0.2,0.8c0,0.6-0.2,1-0.6,1.4s-1,0.6-1.6,0.6h-1.9
			V34.1z M391,34.8V37h0.4c0.5,0,0.8,0,1.1-0.1c0.2-0.1,0.4-0.2,0.5-0.4c0.1-0.2,0.2-0.4,0.2-0.6c0-0.3-0.1-0.6-0.3-0.7
			s-0.6-0.3-1.1-0.3H391z M391,37.7v2.7h0.9c0.5,0,0.9,0,1.1-0.1s0.4-0.3,0.6-0.5c0.1-0.2,0.2-0.4,0.2-0.7c0-0.3-0.1-0.6-0.3-0.8
			s-0.5-0.4-0.8-0.5c-0.2-0.1-0.6-0.1-1.2-0.1H391z"/>
		<path d="M399.2,33.9c1.1,0,1.9,0.4,2.6,1.1c0.7,0.7,1.1,1.6,1.1,2.6c0,1-0.4,1.9-1.1,2.6c-0.7,0.7-1.6,1.1-2.6,1.1
			c-1,0-1.9-0.4-2.6-1.1c-0.7-0.7-1.1-1.6-1.1-2.6c0-0.7,0.2-1.3,0.5-1.9c0.3-0.6,0.8-1,1.3-1.3S398.5,33.9,399.2,33.9z M399.2,34.6
			c-0.5,0-1,0.1-1.5,0.4c-0.5,0.3-0.8,0.6-1.1,1.1s-0.4,1-0.4,1.5c0,0.8,0.3,1.5,0.9,2.1s1.3,0.9,2.1,0.9c0.5,0,1-0.1,1.5-0.4
			c0.5-0.3,0.8-0.6,1.1-1.1c0.3-0.5,0.4-1,0.4-1.5c0-0.6-0.1-1-0.4-1.5s-0.6-0.8-1.1-1.1C400.2,34.7,399.7,34.6,399.2,34.6z"/>
		<path d="M404.3,34.1h1.4c0.8,0,1.3,0,1.6,0.1c0.4,0.1,0.7,0.3,1,0.6c0.3,0.3,0.4,0.7,0.4,1.1c0,0.4-0.1,0.7-0.3,1
			c-0.2,0.3-0.4,0.5-0.8,0.6c-0.3,0.1-0.8,0.2-1.4,0.2l2.5,3.2h-0.9l-2.5-3.2H405V41h-0.7V34.1z M405,34.8v2.4l1.2,0
			c0.5,0,0.8,0,1-0.1c0.2-0.1,0.4-0.2,0.5-0.4c0.1-0.2,0.2-0.4,0.2-0.6c0-0.2-0.1-0.4-0.2-0.6c-0.1-0.2-0.3-0.3-0.5-0.4
			c-0.2-0.1-0.5-0.1-1-0.1H405z"/>
	</g>
</g>
</svg>
